<svg xmlns="http://www.w3.org/2000/svg" xmlns:xlink="http://www.w3.org/1999/xlink" width="200.264" height="59.253" viewBox="0 0 200.264 59.253">
  <defs>
    <linearGradient id="linear-gradient" x1="-0.004" y1="0.257" x2="0.815" y2="0.957" gradientUnits="objectBoundingBox">
      <stop offset="0.088" stop-color="#f70fff"/>
      <stop offset="0.909" stop-color="#12d6df"/>
    </linearGradient>
    <linearGradient id="linear-gradient-2" x1="0.005" y1="0.508" x2="1" y2="0.508" gradientUnits="objectBoundingBox">
      <stop offset="0" stop-color="#f70fff"/>
      <stop offset="0.909" stop-color="#12d6df"/>
    </linearGradient>
  </defs>
  <g id="Group_1352" data-name="Group 1352" transform="translate(-51.199 -53.367)">
    <path id="Path_142" data-name="Path 142" d="M78.193,64.863c.14-2.616.174-5.162.174-5.232,0-6.453-1.256-11.057-3.8-13.917a9.505,9.505,0,0,0,.8-.872,10.157,10.157,0,0,0,2.616-7.29A4.916,4.916,0,0,0,76.8,34.134c-2.895-2.895-11.266-10.6-14.44-13.359l-.035-.035h0l-.035-.035a8.244,8.244,0,0,0-3.627-1.814c-2.581-.907-6.313.488-9.069,3.662-3.034,3.523-3.767,7.987-1.744,10.289a7.874,7.874,0,0,0,1.918,2.372l.035.035h0c.035.035.1.07.14.1l7.325,6.313L49.417,54.19a1.839,1.839,0,0,0-.419-.1,5.8,5.8,0,0,0-4.569,1.325c-3.139,2.2-3.069,6.418-2.616,8.371a3.55,3.55,0,0,0,.663,1.465l-1.988,3.174a1.89,1.89,0,0,0-.279,1.046A1.83,1.83,0,0,0,41.29,71.42a2.42,2.42,0,0,0,1.221.349,1.284,1.284,0,0,0,1.116-.523,2,2,0,0,0,.523-.558l1.325-2.163c2.128,1.918,5.755,3.767,11.789,3.767.488,0,1.011,0,1.535-.035a.374.374,0,0,0,.384-.419.379.379,0,0,0-.244-.349.314.314,0,0,0-.174-.035c-5.581.279-9.975-.977-12.836-3.593-.1-.1-.209-.174-.314-.279a2.088,2.088,0,0,0,.419.07h.244a.394.394,0,0,0,.314-.453.236.236,0,0,0-.14-.209.62.62,0,0,0-.349-.14h-.07a1.206,1.206,0,0,1-.419-.1,3.559,3.559,0,0,1-.767-.314h-.07a1.728,1.728,0,0,1,0-.942c.035,0,.035.035.07.035a7.291,7.291,0,0,0,1.325.384,1.431,1.431,0,0,0,.384.035h.279a.388.388,0,0,0,.314-.488.192.192,0,0,0-.1-.174.415.415,0,0,0-.384-.14h0a3.546,3.546,0,0,1-1.43-.314,1.724,1.724,0,0,1,.628-.279,6.005,6.005,0,0,1,1.151-.07,1.989,1.989,0,0,1,.453.035c.14,0,.314.035.453.035.732.1,1.57.244,2.476.384,1.186.209,2.546.453,3.976.593a38.858,38.858,0,0,0,7.22,0,.852.852,0,0,0,.244-.035.266.266,0,0,0,.174-.07.351.351,0,0,0,.174-.384.394.394,0,0,0-.453-.349s-.7.07-1.814.14a36.935,36.935,0,0,1-5.441-.1c-1.4-.14-2.721-.384-3.906-.593-.767-.14-1.465-.244-2.128-.349l.977-1.57a5.518,5.518,0,0,0,1.779.767,4.33,4.33,0,0,0,.942.1,3.038,3.038,0,0,0,1.186-.174,1.253,1.253,0,0,0,.349-.244c.419-.453.453-1.151.453-2.267,0-1.849.035-2.442.07-3.244a29.156,29.156,0,0,1,.349-3.209l.209-1.151c.1-.453.209-.907.349-1.325l.1-.314a12.035,12.035,0,0,1,2.93-5.127,7.284,7.284,0,0,1,.767-.7,7.658,7.658,0,0,1,.872-.593c.174-.1.384-.209.558-.314.07-.035.1-.07.174-.1l.209-.1a2.133,2.133,0,0,1,.419-.174,12.866,12.866,0,0,1,4.813-.907,10.711,10.711,0,0,1,7.464,2.581c.1.1.209.174.314.279a2.256,2.256,0,0,1,.279.314c2.407,2.686,3.558,7.08,3.558,13.359,0,.035-.035,2.546-.174,5.092,0,.279-.035.558-.035.837-.035.977-.1,1.918-.174,2.686A2.721,2.721,0,0,0,77.5,69.92a2.91,2.91,0,0,0,.279.419,3.59,3.59,0,0,0,2.581,1.011c-.942.523-2.965,1.151-6.941,1.674a.394.394,0,0,0-.349.453.414.414,0,0,0,.419.349h.07c8.336-1.046,8.336-2.616,8.336-3.139,0-.977-1.43-1.674-2.616-2.093a.408.408,0,0,0-.279.767,4.5,4.5,0,0,1,1.988,1.116,3.028,3.028,0,0,1-2.511-.732,1.9,1.9,0,0,1-.419-1.4c.07-.767.14-1.709.174-2.686,6.453,1.116,10.115,2.965,10.115,5.127a2.514,2.514,0,0,1-1.186,1.883.435.435,0,0,0-.07.593.416.416,0,0,0,.314.174.317.317,0,0,0,.244-.1,3.289,3.289,0,0,0,1.5-2.546C89.11,68.176,85.238,66.049,78.193,64.863ZM48.755,32.669l-.244-.244c-1.046-1.116-1.256-2.93-.732-4.848a15.467,15.467,0,0,1,.523-1.5,12.265,12.265,0,0,1,1.883-2.93,13.832,13.832,0,0,1,2.546-2.267,8.1,8.1,0,0,1,1.43-.767,6.843,6.843,0,0,1,2.755-.628,4.639,4.639,0,0,1,1.57.279,3.2,3.2,0,0,1,.942.558A4.4,4.4,0,0,1,60.613,24.4c-.035.174-.07.314-.1.488l-.558.14a.419.419,0,0,0,.244.8l.07-.035a11.716,11.716,0,0,1-2.3,4.011,10.484,10.484,0,0,1-4.988,3.383A4.259,4.259,0,0,1,48.755,32.669Zm1.535,1.988c-.209-.174-.384-.349-.558-.523a5.437,5.437,0,0,0,1.535.244,6.922,6.922,0,0,0,1.988-.314A11.451,11.451,0,0,0,58.625,30.4,12.627,12.627,0,0,0,61.1,26.077l.1.14a.416.416,0,0,0,.314.174.317.317,0,0,0,.244-.1.435.435,0,0,0,.07-.593l-.523-.628c.035-.174.07-.349.1-.558a5.925,5.925,0,0,0-.628-3.837,8.172,8.172,0,0,1,.942.7c.035,0,.035.035.07.07,2.267,2.023,1.57,6.592-1.57,10.254-3.1,3.627-7.5,4.953-9.836,3.069ZM42.337,61.619a6.568,6.568,0,0,1,2.511-5.476,5.975,5.975,0,0,1,3.279-1.256,3.843,3.843,0,0,1,.628.07c.07,0,.1.035.14.035.14.035.279.1.384.14a3.067,3.067,0,0,1,.349.209,1.4,1.4,0,0,1,.419.349,3.945,3.945,0,0,0-.523-.14,2.575,2.575,0,0,0-.419-.07h-.035a.42.42,0,0,0-.453.349.376.376,0,0,0,.07.279.542.542,0,0,0,.279.209h.07a4.433,4.433,0,0,1,1.221.349.4.4,0,0,0,.279.1,1.7,1.7,0,0,1-.1.7l-.209.314a4.908,4.908,0,0,0-1.639-.7.351.351,0,0,1-.1-.035.431.431,0,0,0-.488.314.4.4,0,0,0,.174.419.264.264,0,0,0,.14.07,4.8,4.8,0,0,1,1.186.419c-.174.07-.384.14-.593.209-.523.14-.977.209-1.36.279a1.431,1.431,0,0,1-.384.035h-.419a.266.266,0,0,1-.174-.07c-.1-.035-.14-.1-.174-.1a.433.433,0,0,0-.593.628,1.577,1.577,0,0,0,.279.209.122.122,0,0,1,.07.035c-.14.174-.349.419-.523.663a15.638,15.638,0,0,0-1.151,1.674c-.523.872-1.116,1.849-1.465,2.407a3.067,3.067,0,0,1-.209.349A9.331,9.331,0,0,1,42.337,61.619Zm.558,9.243c-.14.244-.7.244-1.256-.07s-.8-.837-.7-1.046l.035-.035a.533.533,0,0,1,.349-.14h.035a1.517,1.517,0,0,1,.8.244,1.173,1.173,0,0,1,.7.942A.128.128,0,0,1,42.895,70.862Zm4.569-7.185a6.21,6.21,0,0,0-1.814.035,2.1,2.1,0,0,0-1.6,1.186,2.673,2.673,0,0,0,.349,2.686,4.18,4.18,0,0,0,.384.419l-1.221,2.023a2.436,2.436,0,0,0-.942-.942,2.3,2.3,0,0,0-1.325-.349h-.07l5.127-8.162c.349-.453.663-.8.8-1.011h.035a10.253,10.253,0,0,0,1.849-.349,3.474,3.474,0,0,0,1.639-.837Zm5.825-6.557c-.035.767-.07,1.36-.07,3.314,0,.837,0,1.465-.209,1.674-.1.14-.419.174-.942.174a5.7,5.7,0,0,1-.767-.07,4.079,4.079,0,0,1-1.5-.663l3.627-5.86C53.359,56.143,53.324,56.6,53.289,57.12Zm6.836-13.952-.209.349-.07.14c-.07.035-.174.1-.244.14a10.645,10.645,0,0,0-2.128,1.6,13.1,13.1,0,0,0-3.139,5.476,19.935,19.935,0,0,0-.663,2.755l-2.407,3.906a2.54,2.54,0,0,0-.174-1.883,3.953,3.953,0,0,0-1.012-1.012L57.858,42.3l.209-.349.209-.349.488-.767a2.46,2.46,0,0,1,1.291.279,2.011,2.011,0,0,1,.767.942Zm6-.907h-.419a13.786,13.786,0,0,0-4.5.8l.558-.907-.07-.174a3.119,3.119,0,0,0-1.221-1.57,2.838,2.838,0,0,0-2.023-.314l-.14.035-.593.942L52.277,36.4a4.675,4.675,0,0,0,.7.035c2.546,0,5.546-1.5,7.883-4.22,2.546-2.93,3.558-6.488,2.86-9.069,3.732,3.348,10.01,9.138,12.452,11.58a4.3,4.3,0,0,1,.942,2.86,9.228,9.228,0,0,1-2.407,6.7,8.339,8.339,0,0,1-.767.8A11.463,11.463,0,0,0,66.124,42.261ZM49,71.8c2.965,1.046,8.72,1.709,14.963,1.709.732,0,1.43,0,2.128-.035a.424.424,0,0,1,.419.419.4.4,0,0,1-.419.419c-.7,0-1.43.035-2.163.035-6.348,0-12.173-.663-15.242-1.779a.415.415,0,0,1-.244-.523A.471.471,0,0,1,49,71.8Zm31.67,4.046a.431.431,0,0,1-.314.488,75.18,75.18,0,0,1-15.626,1.535H64a.419.419,0,1,1,0-.837h.732A73.665,73.665,0,0,0,80.181,75.5.525.525,0,0,1,80.669,75.85Zm-29.194.837a.414.414,0,0,1-.419.349h-.07a52.109,52.109,0,0,1-5.964-1.256,18.416,18.416,0,0,1-4.674-1.953A3.373,3.373,0,0,1,38.5,71.211a.419.419,0,1,1,.837,0c0,.628.488,1.291,1.465,1.918a15.2,15.2,0,0,0,4.465,1.849,42.945,42.945,0,0,0,5.86,1.221A.456.456,0,0,1,51.475,76.687Zm8.894-23.718a2.263,2.263,0,1,0-1.57-.663A2.084,2.084,0,0,0,60.369,52.969ZM59.358,49.76a1.377,1.377,0,0,1,.977-.419,1.254,1.254,0,0,1,.384.07,1.483,1.483,0,0,0-.628,1.256,1.305,1.305,0,0,0,.767,1.325,1.447,1.447,0,0,1-1.535-.279,1.377,1.377,0,0,1-.419-.977A2.1,2.1,0,0,1,59.358,49.76Zm8.406,3.209a2.22,2.22,0,0,0,1.57-3.8c-.1-.1-.209-.174-.314-.279a1.946,1.946,0,0,0-.942-.349,1,1,0,0,0-.453,0,2.419,2.419,0,0,0-.977.279,2.2,2.2,0,0,0-.453,3.488A2.084,2.084,0,0,0,67.764,52.969Zm-.977-3.209a1.377,1.377,0,0,1,.977-.419,1.4,1.4,0,0,1,.523.1,1.442,1.442,0,0,0-.558,1.256,1.367,1.367,0,0,0,.663,1.291,1.434,1.434,0,0,1-1.6-.244,1.377,1.377,0,0,1-.419-.977A1.4,1.4,0,0,1,66.787,49.76Zm7.255,7.325c-1.046-1.814-4.29-2.372-4.43-2.407a.41.41,0,0,0-.488.349.427.427,0,0,0,.349.488.852.852,0,0,0,.244.035.335.335,0,0,0-.1.349.389.389,0,0,0-.453.279.434.434,0,0,0,.279.523,1.457,1.457,0,0,1,.314.1v.07a1.431,1.431,0,0,1-.035.384,2.938,2.938,0,0,0-.488-.279.421.421,0,0,0-.349.767,1.88,1.88,0,0,1,.523.384,2.775,2.775,0,0,1-2.476,1.535,2.739,2.739,0,0,1-2.755-2.755v-.14c.035-.035.07-.035.1-.07l1.081-.942a.664.664,0,0,0,.244-.593.621.621,0,0,0-.349-.558,1.6,1.6,0,0,0-1.081-.14,9.117,9.117,0,0,1-.977,0,1.531,1.531,0,0,0-.977.1.719.719,0,0,0-.349.593.728.728,0,0,0,.244.628l1.151.977H63.3v.244a2.759,2.759,0,0,1-5.232,1.221,3.926,3.926,0,0,1,.558-.384.421.421,0,0,0-.349-.767,2.938,2.938,0,0,0-.488.279,1.431,1.431,0,0,1-.035-.384v-.07a1.494,1.494,0,0,1,.349-.1.418.418,0,0,0,.279-.523A.389.389,0,0,0,57.928,56a.394.394,0,0,0-.1-.384.976.976,0,0,1,.209-.035.426.426,0,0,0,.384-.453.4.4,0,0,0-.453-.384A5.035,5.035,0,0,0,54.44,56.7a.442.442,0,0,0,.1.593.5.5,0,0,0,.244.07.429.429,0,0,0,.349-.174,3.882,3.882,0,0,1,1.988-1.4,3.265,3.265,0,0,0-.14.558,5.156,5.156,0,0,0-3.034,3.941.4.4,0,0,0,.349.453h.035a.414.414,0,0,0,.419-.349,4.217,4.217,0,0,1,2.163-3.069,4.115,4.115,0,0,0,.14.7A5.837,5.837,0,0,0,55.835,60.5a.38.38,0,0,0,.314.488h.1a.489.489,0,0,0,.419-.314,4.633,4.633,0,0,1,.8-1.814,3.589,3.589,0,0,0,3.069,1.744,4.032,4.032,0,0,0,1.291-.244v.593a1.918,1.918,0,1,0,3.837,0v-.7a3.656,3.656,0,0,0,1.256.244A3.589,3.589,0,0,0,70,58.759a4.633,4.633,0,0,1,.8,1.814.419.419,0,0,0,.419.314h.1a.453.453,0,0,0,.314-.488,5.837,5.837,0,0,0-1.221-2.476,4.114,4.114,0,0,0,.14-.7,4.217,4.217,0,0,1,2.163,3.069.414.414,0,0,0,.419.349h.035a.394.394,0,0,0,.349-.453,5.156,5.156,0,0,0-3.034-3.941,2.906,2.906,0,0,0-.14-.523A5.171,5.171,0,0,1,73.24,57.5a.384.384,0,0,0,.349.209.5.5,0,0,0,.209-.07A.387.387,0,0,0,74.042,57.085ZM64.9,60.852A1.049,1.049,0,0,1,63.857,61.9a1.073,1.073,0,0,1-1.046-1.046V59.77a5.052,5.052,0,0,0,.628-.593v1.535a.424.424,0,0,0,.419.419.45.45,0,0,0,.419-.419v-1.5a2.407,2.407,0,0,0,.628.558Z" transform="translate(12.699 34.747)" fill="url(#linear-gradient)"/>
    <path id="Path_143" data-name="Path 143" d="M170.3,109.931a2.037,2.037,0,0,1-4.046,0v-5.169a2.312,2.312,0,0,0-2.248-2.472c-1.124,0-2.248.674-2.248,2.7v5.169a2.037,2.037,0,0,1-4.046,0v-5.394a2.294,2.294,0,0,0-2.023-2.472c-1.124,0-2.248.674-2.248,2.7v5.169a2.037,2.037,0,0,1-4.046,0v-9.664a1.981,1.981,0,0,1,2.023-1.8,1.836,1.836,0,0,1,2.023,1.8h0a3.708,3.708,0,0,1,3.371-2.023,4.227,4.227,0,0,1,4.27,2.472,4.27,4.27,0,0,1,3.821-2.472c3.147,0,4.945,2.023,4.945,5.844v5.619Zm13.485.674a7.9,7.9,0,0,1-4.5,1.124,6.62,6.62,0,0,1-6.743-6.743c0-4.046,2.922-6.518,6.743-6.518a6.439,6.439,0,0,1,6.518,6.743,1.2,1.2,0,0,1-1.124,1.124h-8.316c.225,1.573,1.8,2.023,3.147,2.023a3.216,3.216,0,0,0,2.248-.674,1.761,1.761,0,0,1,2.472.225C185.136,109.032,184.911,110.156,183.787,110.605Zm-1.573-6.518a2.491,2.491,0,0,0-2.7-2.248,2.855,2.855,0,0,0-2.922,2.248Zm6.967,8.99a2.024,2.024,0,0,1,2.472,0,4.458,4.458,0,0,0,2.922,1.349c2.922,0,3.6-2.023,3.6-4.5v-.45a5.022,5.022,0,0,1-4.046,2.248c-3.371,0-6.293-2.472-6.293-6.743s2.922-6.743,6.293-6.743a4.973,4.973,0,0,1,3.821,2.023v-.225a1.981,1.981,0,0,1,2.023-1.8,1.836,1.836,0,0,1,2.023,1.8v9.44c0,5.619-2.7,8.091-7.192,8.091a6.526,6.526,0,0,1-5.394-2.472A1.167,1.167,0,0,1,189.182,113.077Zm5.619-4.72a3.214,3.214,0,0,0,3.147-3.147,3.073,3.073,0,0,0-3.147-3.147,2.884,2.884,0,0,0-2.922,3.147A2.765,2.765,0,0,0,194.8,108.358Zm19.554-8.091a1.981,1.981,0,0,1,2.023-1.8,1.836,1.836,0,0,1,2.023,1.8v9.664a2.037,2.037,0,0,1-4.046,0v-.225a4.7,4.7,0,0,1-3.821,2.023c-3.371,0-6.293-2.472-6.293-6.743s2.922-6.743,6.293-6.743a4.973,4.973,0,0,1,3.821,2.023Zm-2.922,8.091a3.214,3.214,0,0,0,3.147-3.147,3.073,3.073,0,0,0-3.147-3.147,2.884,2.884,0,0,0-2.922,3.147A2.765,2.765,0,0,0,211.432,108.358Zm12.137,3.147a1.593,1.593,0,0,1-1.573-1.8V94.2a1.737,1.737,0,0,1,1.573-1.8h6.068c3.371,0,5.619,2.023,5.619,5.169a3.944,3.944,0,0,1-2.472,3.6,4.619,4.619,0,0,1,3.6,4.27,5.725,5.725,0,0,1-6.068,5.844h-6.743Zm5.619-11.238a2.037,2.037,0,0,0,0-4.046h-3.147v4.046Zm-3.147,3.147v4.72h3.821c1.349,0,2.023-1.124,2.023-2.472a2.066,2.066,0,0,0-2.023-2.248Zm21.8-11.013a9.664,9.664,0,1,1-9.664,9.664A9.886,9.886,0,0,1,247.843,92.4Zm0,15.508a5.848,5.848,0,1,0-5.619-5.844C242.449,105.211,244.7,107.908,247.843,107.908Zm27.2,1.8a1.981,1.981,0,0,1-1.8,2.023h-.449a2.3,2.3,0,0,1-2.248-1.349L264.7,100.266v9.664a1.836,1.836,0,0,1-2.023,1.8,1.981,1.981,0,0,1-2.023-1.8V94.648a1.981,1.981,0,0,1,1.8-2.023h.449a2.3,2.3,0,0,1,2.248,1.349l5.844,10.114V94.423a2.037,2.037,0,0,1,4.046,0Zm16.182-1.124a1.85,1.85,0,0,1-.225,2.7,2.051,2.051,0,0,1-2.7,0l-5.394-6.068v4.72a1.836,1.836,0,0,1-2.023,1.8,1.981,1.981,0,0,1-2.023-1.8V94.423a2.037,2.037,0,0,1,4.046,0v4.5L286.95,93.3a2.052,2.052,0,0,1,2.472-.45,1.645,1.645,0,0,1,.674,2.472l-5.169,6.743Z" transform="translate(-40.238 -15.994)" fill="url(#linear-gradient-2)"/>
  </g>
</svg>
